<svg width="100" height="37" viewBox="0 0 100 37" fill="none" xmlns="http://www.w3.org/2000/svg">
<rect width="100" height="37" rx="3" fill="white"/>
<path d="M24 11V11.75C28.0041 11.75 31.25 14.9959 31.25 19H32H32.75C32.75 14.1675 28.8325 10.25 24 10.25V11ZM32 19H32.75C32.75 17.3337 31.1301 16.25 29.5 16.25V17V17.75C30.6313 17.75 31.25 18.4572 31.25 19H32ZM29.5 17V16.25C27.8699 16.25 26.25 17.3337 26.25 19H27H27.75C27.75 18.4572 28.3687 17.75 29.5 17.75V17ZM27 19H27.75C27.75 18.1189 27.2143 17.4131 26.5373 16.9617C25.8551 16.5069 24.9558 16.25 24 16.25V17V17.75C24.701 17.75 25.3017 17.9408 25.7053 18.2098C26.1141 18.4824 26.25 18.7765 26.25 19H27ZM24 17V16.25C23.0442 16.25 22.1449 16.5069 21.4627 16.9617C20.7857 17.4131 20.25 18.1189 20.25 19H21H21.75C21.75 18.7765 21.8859 18.4824 22.2947 18.2098C22.6983 17.9408 23.299 17.75 24 17.75V17ZM21 19H21.75C21.75 17.3337 20.1301 16.25 18.5 16.25V17V17.75C19.6313 17.75 20.25 18.4572 20.25 19H21ZM18.5 17V16.25C16.8699 16.25 15.25 17.3337 15.25 19H16H16.75C16.75 18.4572 17.3687 17.75 18.5 17.75V17ZM16 19H16.75C16.75 14.9959 19.9959 11.75 24 11.75V11V10.25C19.1675 10.25 15.25 14.1675 15.25 19H16Z" fill="black"/>
<path d="M24 17V25" stroke="black" stroke-width="1.5"/>
<path d="M24.75 25C24.75 26.5188 23.5188 27.75 22 27.75V26.25C22.6904 26.25 23.25 25.6904 23.25 25H24.75Z" fill="black"/>
<path d="M20 21L19 24" stroke="black" stroke-width="1.5"/>
<path d="M28 21L29 24" stroke="black" stroke-width="1.5"/>
<path d="M40.244 21.068L39.956 19.688L42.956 16.676H44.924L40.244 21.068ZM38.864 23V14.12H40.34V23H38.864ZM43.136 23L40.808 20.18L41.852 19.292L44.96 23H43.136ZM48.5529 23.12C47.9209 23.12 47.3569 22.98 46.8609 22.7C46.3649 22.412 45.9729 22.02 45.6849 21.524C45.3969 21.028 45.2529 20.464 45.2529 19.832C45.2529 19.2 45.3969 18.636 45.6849 18.14C45.9729 17.644 46.3649 17.256 46.8609 16.976C47.3569 16.688 47.9209 16.544 48.5529 16.544C49.1769 16.544 49.7369 16.688 50.2329 16.976C50.7289 17.256 51.1169 17.644 51.3969 18.14C51.6849 18.636 51.8289 19.2 51.8289 19.832C51.8289 20.464 51.6849 21.028 51.3969 21.524C51.1169 22.02 50.7289 22.412 50.2329 22.7C49.7369 22.98 49.1769 23.12 48.5529 23.12ZM48.5529 21.812C48.8969 21.812 49.2009 21.724 49.4649 21.548C49.7369 21.372 49.9489 21.136 50.1009 20.84C50.2609 20.544 50.3369 20.208 50.3289 19.832C50.3369 19.448 50.2609 19.108 50.1009 18.812C49.9489 18.516 49.7369 18.284 49.4649 18.116C49.2009 17.94 48.8969 17.852 48.5529 17.852C48.2089 17.852 47.8969 17.94 47.6169 18.116C47.3449 18.284 47.1329 18.52 46.9809 18.824C46.8289 19.12 46.7529 19.456 46.7529 19.832C46.7529 20.208 46.8289 20.544 46.9809 20.84C47.1329 21.136 47.3449 21.372 47.6169 21.548C47.8969 21.724 48.2089 21.812 48.5529 21.812ZM55.2612 23.12C54.7012 23.12 54.1972 23.028 53.7492 22.844C53.3092 22.652 52.9492 22.38 52.6692 22.028L53.6292 21.2C53.8692 21.472 54.1372 21.668 54.4332 21.788C54.7292 21.908 55.0412 21.968 55.3692 21.968C55.5052 21.968 55.6252 21.952 55.7292 21.92C55.8412 21.888 55.9372 21.84 56.0172 21.776C56.0972 21.712 56.1572 21.64 56.1972 21.56C56.2452 21.472 56.2692 21.376 56.2692 21.272C56.2692 21.08 56.1972 20.928 56.0532 20.816C55.9732 20.76 55.8452 20.7 55.6692 20.636C55.5012 20.572 55.2812 20.508 55.0092 20.444C54.5772 20.332 54.2172 20.204 53.9292 20.06C53.6412 19.908 53.4172 19.74 53.2572 19.556C53.1212 19.404 53.0172 19.232 52.9452 19.04C52.8812 18.848 52.8492 18.64 52.8492 18.416C52.8492 18.136 52.9092 17.884 53.0292 17.66C53.1572 17.428 53.3292 17.228 53.5452 17.06C53.7612 16.892 54.0132 16.764 54.3012 16.676C54.5892 16.588 54.8892 16.544 55.2012 16.544C55.5212 16.544 55.8292 16.584 56.1252 16.664C56.4292 16.744 56.7092 16.86 56.9652 17.012C57.2292 17.156 57.4532 17.332 57.6372 17.54L56.8212 18.44C56.6692 18.296 56.5012 18.168 56.3172 18.056C56.1412 17.944 55.9612 17.856 55.7772 17.792C55.5932 17.72 55.4212 17.684 55.2612 17.684C55.1092 17.684 54.9732 17.7 54.8532 17.732C54.7332 17.756 54.6332 17.796 54.5532 17.852C54.4732 17.908 54.4092 17.98 54.3612 18.068C54.3212 18.148 54.3012 18.244 54.3012 18.356C54.3092 18.452 54.3332 18.544 54.3732 18.632C54.4212 18.712 54.4852 18.78 54.5652 18.836C54.6532 18.892 54.7852 18.956 54.9612 19.028C55.1372 19.1 55.3652 19.168 55.6452 19.232C56.0372 19.336 56.3652 19.452 56.6292 19.58C56.8932 19.708 57.1012 19.856 57.2532 20.024C57.4052 20.168 57.5132 20.336 57.5772 20.528C57.6412 20.72 57.6732 20.932 57.6732 21.164C57.6732 21.54 57.5652 21.876 57.3492 22.172C57.1412 22.468 56.8532 22.7 56.4852 22.868C56.1252 23.036 55.7172 23.12 55.2612 23.12ZM61.3614 23.12C60.8414 23.12 60.3694 22.976 59.9454 22.688C59.5214 22.4 59.1814 22.008 58.9254 21.512C58.6694 21.016 58.5414 20.452 58.5414 19.82C58.5414 19.188 58.6694 18.624 58.9254 18.128C59.1814 17.632 59.5294 17.244 59.9694 16.964C60.4094 16.684 60.9054 16.544 61.4574 16.544C61.7774 16.544 62.0694 16.592 62.3334 16.688C62.5974 16.776 62.8294 16.904 63.0294 17.072C63.2294 17.24 63.3934 17.432 63.5214 17.648C63.6574 17.864 63.7494 18.096 63.7974 18.344L63.4734 18.26V16.676H64.9614V23H63.4614V21.488L63.8094 21.428C63.7534 21.644 63.6494 21.856 63.4974 22.064C63.3534 22.264 63.1694 22.444 62.9454 22.604C62.7294 22.756 62.4854 22.88 62.2134 22.976C61.9494 23.072 61.6654 23.12 61.3614 23.12ZM61.7694 21.812C62.1134 21.812 62.4174 21.728 62.6814 21.56C62.9454 21.392 63.1494 21.16 63.2934 20.864C63.4454 20.56 63.5214 20.212 63.5214 19.82C63.5214 19.436 63.4454 19.096 63.2934 18.8C63.1494 18.504 62.9454 18.272 62.6814 18.104C62.4174 17.936 62.1134 17.852 61.7694 17.852C61.4254 17.852 61.1214 17.936 60.8574 18.104C60.6014 18.272 60.4014 18.504 60.2574 18.8C60.1134 19.096 60.0414 19.436 60.0414 19.82C60.0414 20.212 60.1134 20.56 60.2574 20.864C60.4014 21.16 60.6014 21.392 60.8574 21.56C61.1214 21.728 61.4254 21.812 61.7694 21.812ZM66.6486 23V16.676H68.1006L68.1246 17.948L67.8846 18.044C67.9566 17.836 68.0646 17.644 68.2086 17.468C68.3526 17.284 68.5246 17.128 68.7246 17C68.9246 16.864 69.1366 16.76 69.3606 16.688C69.5846 16.608 69.8126 16.568 70.0446 16.568C70.3886 16.568 70.6926 16.624 70.9566 16.736C71.2286 16.84 71.4526 17.008 71.6286 17.24C71.8126 17.472 71.9486 17.768 72.0366 18.128L71.8086 18.08L71.9046 17.888C71.9926 17.696 72.1166 17.524 72.2766 17.372C72.4366 17.212 72.6166 17.072 72.8166 16.952C73.0166 16.824 73.2246 16.728 73.4406 16.664C73.6646 16.6 73.8846 16.568 74.1006 16.568C74.5806 16.568 74.9806 16.664 75.3006 16.856C75.6206 17.048 75.8606 17.34 76.0206 17.732C76.1806 18.124 76.2606 18.608 76.2606 19.184V23H74.7726V19.28C74.7726 18.96 74.7286 18.696 74.6406 18.488C74.5606 18.28 74.4326 18.128 74.2566 18.032C74.0886 17.928 73.8766 17.876 73.6206 17.876C73.4206 17.876 73.2286 17.912 73.0446 17.984C72.8686 18.048 72.7166 18.144 72.5886 18.272C72.4606 18.392 72.3606 18.532 72.2886 18.692C72.2166 18.852 72.1806 19.028 72.1806 19.22V23H70.6926V19.268C70.6926 18.964 70.6486 18.712 70.5606 18.512C70.4726 18.304 70.3446 18.148 70.1766 18.044C70.0086 17.932 69.8046 17.876 69.5646 17.876C69.3646 17.876 69.1766 17.912 69.0006 17.984C68.8246 18.048 68.6726 18.14 68.5446 18.26C68.4166 18.38 68.3166 18.52 68.2446 18.68C68.1726 18.84 68.1366 19.016 68.1366 19.208V23H66.6486ZM80.8632 23.12C80.1992 23.12 79.6112 22.98 79.0992 22.7C78.5952 22.42 78.1992 22.04 77.9112 21.56C77.6312 21.072 77.4912 20.516 77.4912 19.892C77.4912 19.396 77.5712 18.944 77.7312 18.536C77.8912 18.128 78.1112 17.776 78.3912 17.48C78.6792 17.176 79.0192 16.944 79.4112 16.784C79.8112 16.616 80.2472 16.532 80.7192 16.532C81.1352 16.532 81.5232 16.612 81.8832 16.772C82.2432 16.932 82.5552 17.152 82.8192 17.432C83.0832 17.704 83.2832 18.032 83.4192 18.416C83.5632 18.792 83.6312 19.204 83.6232 19.652L83.6112 20.168H78.4872L78.2112 19.16H82.3752L82.1832 19.364V19.1C82.1592 18.852 82.0792 18.636 81.9432 18.452C81.8072 18.26 81.6312 18.112 81.4152 18.008C81.2072 17.896 80.9752 17.84 80.7192 17.84C80.3272 17.84 79.9952 17.916 79.7232 18.068C79.4592 18.22 79.2592 18.44 79.1232 18.728C78.9872 19.008 78.9192 19.36 78.9192 19.784C78.9192 20.192 79.0032 20.548 79.1712 20.852C79.3472 21.156 79.5912 21.392 79.9032 21.56C80.2232 21.72 80.5952 21.8 81.0192 21.8C81.3152 21.8 81.5872 21.752 81.8352 21.656C82.0832 21.56 82.3512 21.388 82.6392 21.14L83.3712 22.16C83.1552 22.36 82.9072 22.532 82.6272 22.676C82.3552 22.812 82.0672 22.92 81.7632 23C81.4592 23.08 81.1592 23.12 80.8632 23.12Z" fill="black"/>
</svg>
