<svg width="71" height="20" viewBox="0 0 71 20" fill="none" xmlns="http://www.w3.org/2000/svg">
<path d="M10 2V2.75C14.0041 2.75 17.25 5.99594 17.25 10H18H18.75C18.75 5.16751 14.8325 1.25 10 1.25V2ZM18 10H18.75C18.75 8.33369 17.1301 7.25 15.5 7.25V8V8.75C16.6313 8.75 17.25 9.45717 17.25 10H18ZM15.5 8V7.25C13.8699 7.25 12.25 8.33369 12.25 10H13H13.75C13.75 9.45717 14.3687 8.75 15.5 8.75V8ZM13 10H13.75C13.75 9.11893 13.2143 8.41307 12.5373 7.96175C11.8551 7.50693 10.9558 7.25 10 7.25V8V8.75C10.701 8.75 11.3017 8.94078 11.7053 9.20982C12.1141 9.48236 12.25 9.7765 12.25 10H13ZM10 8V7.25C9.04416 7.25 8.14488 7.50693 7.46265 7.96175C6.78567 8.41307 6.25 9.11893 6.25 10H7H7.75C7.75 9.7765 7.8859 9.48236 8.2947 9.20982C8.69827 8.94078 9.29899 8.75 10 8.75V8ZM7 10H7.75C7.75 8.33369 6.1301 7.25 4.5 7.25V8V8.75C5.63132 8.75 6.25 9.45717 6.25 10H7ZM4.5 8V7.25C2.8699 7.25 1.25 8.33369 1.25 10H2H2.75C2.75 9.45717 3.36868 8.75 4.5 8.75V8ZM2 10H2.75C2.75 5.99594 5.99594 2.75 10 2.75V2V1.25C5.16751 1.25 1.25 5.16751 1.25 10H2Z" fill="black"/>
<path d="M10 8V16" stroke="black" stroke-width="1.5"/>
<path d="M10.75 16C10.75 17.5188 9.51878 18.75 8 18.75V17.25C8.69036 17.25 9.25 16.6904 9.25 16H10.75Z" fill="black"/>
<path d="M6 12L5 15" stroke="black" stroke-width="1.5"/>
<path d="M14 12L15 15" stroke="black" stroke-width="1.5"/>
<path d="M26.244 12.068L25.956 10.688L28.956 7.676H30.924L26.244 12.068ZM24.864 14V5.12H26.34V14H24.864ZM29.136 14L26.808 11.18L27.852 10.292L30.96 14H29.136ZM34.5529 14.12C33.9209 14.12 33.3569 13.98 32.8609 13.7C32.3649 13.412 31.9729 13.02 31.6849 12.524C31.3969 12.028 31.2529 11.464 31.2529 10.832C31.2529 10.2 31.3969 9.636 31.6849 9.14C31.9729 8.644 32.3649 8.256 32.8609 7.976C33.3569 7.688 33.9209 7.544 34.5529 7.544C35.1769 7.544 35.7369 7.688 36.2329 7.976C36.7289 8.256 37.1169 8.644 37.3969 9.14C37.6849 9.636 37.8289 10.2 37.8289 10.832C37.8289 11.464 37.6849 12.028 37.3969 12.524C37.1169 13.02 36.7289 13.412 36.2329 13.7C35.7369 13.98 35.1769 14.12 34.5529 14.12ZM34.5529 12.812C34.8969 12.812 35.2009 12.724 35.4649 12.548C35.7369 12.372 35.9489 12.136 36.1009 11.84C36.2609 11.544 36.3369 11.208 36.3289 10.832C36.3369 10.448 36.2609 10.108 36.1009 9.812C35.9489 9.516 35.7369 9.284 35.4649 9.116C35.2009 8.94 34.8969 8.852 34.5529 8.852C34.2089 8.852 33.8969 8.94 33.6169 9.116C33.3449 9.284 33.1329 9.52 32.9809 9.824C32.8289 10.12 32.7529 10.456 32.7529 10.832C32.7529 11.208 32.8289 11.544 32.9809 11.84C33.1329 12.136 33.3449 12.372 33.6169 12.548C33.8969 12.724 34.2089 12.812 34.5529 12.812ZM41.2612 14.12C40.7012 14.12 40.1972 14.028 39.7492 13.844C39.3092 13.652 38.9492 13.38 38.6692 13.028L39.6292 12.2C39.8692 12.472 40.1372 12.668 40.4332 12.788C40.7292 12.908 41.0412 12.968 41.3692 12.968C41.5052 12.968 41.6252 12.952 41.7292 12.92C41.8412 12.888 41.9372 12.84 42.0172 12.776C42.0972 12.712 42.1572 12.64 42.1972 12.56C42.2452 12.472 42.2692 12.376 42.2692 12.272C42.2692 12.08 42.1972 11.928 42.0532 11.816C41.9732 11.76 41.8452 11.7 41.6692 11.636C41.5012 11.572 41.2812 11.508 41.0092 11.444C40.5772 11.332 40.2172 11.204 39.9292 11.06C39.6412 10.908 39.4172 10.74 39.2572 10.556C39.1212 10.404 39.0172 10.232 38.9452 10.04C38.8812 9.848 38.8492 9.64 38.8492 9.416C38.8492 9.136 38.9092 8.884 39.0292 8.66C39.1572 8.428 39.3292 8.228 39.5452 8.06C39.7612 7.892 40.0132 7.764 40.3012 7.676C40.5892 7.588 40.8892 7.544 41.2012 7.544C41.5212 7.544 41.8292 7.584 42.1252 7.664C42.4292 7.744 42.7092 7.86 42.9652 8.012C43.2292 8.156 43.4532 8.332 43.6372 8.54L42.8212 9.44C42.6692 9.296 42.5012 9.168 42.3172 9.056C42.1412 8.944 41.9612 8.856 41.7772 8.792C41.5932 8.72 41.4212 8.684 41.2612 8.684C41.1092 8.684 40.9732 8.7 40.8532 8.732C40.7332 8.756 40.6332 8.796 40.5532 8.852C40.4732 8.908 40.4092 8.98 40.3612 9.068C40.3212 9.148 40.3012 9.244 40.3012 9.356C40.3092 9.452 40.3332 9.544 40.3732 9.632C40.4212 9.712 40.4852 9.78 40.5652 9.836C40.6532 9.892 40.7852 9.956 40.9612 10.028C41.1372 10.1 41.3652 10.168 41.6452 10.232C42.0372 10.336 42.3652 10.452 42.6292 10.58C42.8932 10.708 43.1012 10.856 43.2532 11.024C43.4052 11.168 43.5132 11.336 43.5772 11.528C43.6412 11.72 43.6732 11.932 43.6732 12.164C43.6732 12.54 43.5652 12.876 43.3492 13.172C43.1412 13.468 42.8532 13.7 42.4852 13.868C42.1252 14.036 41.7172 14.12 41.2612 14.12ZM47.3614 14.12C46.8414 14.12 46.3694 13.976 45.9454 13.688C45.5214 13.4 45.1814 13.008 44.9254 12.512C44.6694 12.016 44.5414 11.452 44.5414 10.82C44.5414 10.188 44.6694 9.624 44.9254 9.128C45.1814 8.632 45.5294 8.244 45.9694 7.964C46.4094 7.684 46.9054 7.544 47.4574 7.544C47.7774 7.544 48.0694 7.592 48.3334 7.688C48.5974 7.776 48.8294 7.904 49.0294 8.072C49.2294 8.24 49.3934 8.432 49.5214 8.648C49.6574 8.864 49.7494 9.096 49.7974 9.344L49.4734 9.26V7.676H50.9614V14H49.4614V12.488L49.8094 12.428C49.7534 12.644 49.6494 12.856 49.4974 13.064C49.3534 13.264 49.1694 13.444 48.9454 13.604C48.7294 13.756 48.4854 13.88 48.2134 13.976C47.9494 14.072 47.6654 14.12 47.3614 14.12ZM47.7694 12.812C48.1134 12.812 48.4174 12.728 48.6814 12.56C48.9454 12.392 49.1494 12.16 49.2934 11.864C49.4454 11.56 49.5214 11.212 49.5214 10.82C49.5214 10.436 49.4454 10.096 49.2934 9.8C49.1494 9.504 48.9454 9.272 48.6814 9.104C48.4174 8.936 48.1134 8.852 47.7694 8.852C47.4254 8.852 47.1214 8.936 46.8574 9.104C46.6014 9.272 46.4014 9.504 46.2574 9.8C46.1134 10.096 46.0414 10.436 46.0414 10.82C46.0414 11.212 46.1134 11.56 46.2574 11.864C46.4014 12.16 46.6014 12.392 46.8574 12.56C47.1214 12.728 47.4254 12.812 47.7694 12.812ZM52.6486 14V7.676H54.1006L54.1246 8.948L53.8846 9.044C53.9566 8.836 54.0646 8.644 54.2086 8.468C54.3526 8.284 54.5246 8.128 54.7246 8C54.9246 7.864 55.1366 7.76 55.3606 7.688C55.5846 7.608 55.8126 7.568 56.0446 7.568C56.3886 7.568 56.6926 7.624 56.9566 7.736C57.2286 7.84 57.4526 8.008 57.6286 8.24C57.8126 8.472 57.9486 8.768 58.0366 9.128L57.8086 9.08L57.9046 8.888C57.9926 8.696 58.1166 8.524 58.2766 8.372C58.4366 8.212 58.6166 8.072 58.8166 7.952C59.0166 7.824 59.2246 7.728 59.4406 7.664C59.6646 7.6 59.8846 7.568 60.1006 7.568C60.5806 7.568 60.9806 7.664 61.3006 7.856C61.6206 8.048 61.8606 8.34 62.0206 8.732C62.1806 9.124 62.2606 9.608 62.2606 10.184V14H60.7726V10.28C60.7726 9.96 60.7286 9.696 60.6406 9.488C60.5606 9.28 60.4326 9.128 60.2566 9.032C60.0886 8.928 59.8766 8.876 59.6206 8.876C59.4206 8.876 59.2286 8.912 59.0446 8.984C58.8686 9.048 58.7166 9.144 58.5886 9.272C58.4606 9.392 58.3606 9.532 58.2886 9.692C58.2166 9.852 58.1806 10.028 58.1806 10.22V14H56.6926V10.268C56.6926 9.964 56.6486 9.712 56.5606 9.512C56.4726 9.304 56.3446 9.148 56.1766 9.044C56.0086 8.932 55.8046 8.876 55.5646 8.876C55.3646 8.876 55.1766 8.912 55.0006 8.984C54.8246 9.048 54.6726 9.14 54.5446 9.26C54.4166 9.38 54.3166 9.52 54.2446 9.68C54.1726 9.84 54.1366 10.016 54.1366 10.208V14H52.6486ZM66.8632 14.12C66.1992 14.12 65.6112 13.98 65.0992 13.7C64.5952 13.42 64.1992 13.04 63.9112 12.56C63.6312 12.072 63.4912 11.516 63.4912 10.892C63.4912 10.396 63.5712 9.944 63.7312 9.536C63.8912 9.128 64.1112 8.776 64.3912 8.48C64.6792 8.176 65.0192 7.944 65.4112 7.784C65.8112 7.616 66.2472 7.532 66.7192 7.532C67.1352 7.532 67.5232 7.612 67.8832 7.772C68.2432 7.932 68.5552 8.152 68.8192 8.432C69.0832 8.704 69.2832 9.032 69.4192 9.416C69.5632 9.792 69.6312 10.204 69.6232 10.652L69.6112 11.168H64.4872L64.2112 10.16H68.3752L68.1832 10.364V10.1C68.1592 9.852 68.0792 9.636 67.9432 9.452C67.8072 9.26 67.6312 9.112 67.4152 9.008C67.2072 8.896 66.9752 8.84 66.7192 8.84C66.3272 8.84 65.9952 8.916 65.7232 9.068C65.4592 9.22 65.2592 9.44 65.1232 9.728C64.9872 10.008 64.9192 10.36 64.9192 10.784C64.9192 11.192 65.0032 11.548 65.1712 11.852C65.3472 12.156 65.5912 12.392 65.9032 12.56C66.2232 12.72 66.5952 12.8 67.0192 12.8C67.3152 12.8 67.5872 12.752 67.8352 12.656C68.0832 12.56 68.3512 12.388 68.6392 12.14L69.3712 13.16C69.1552 13.36 68.9072 13.532 68.6272 13.676C68.3552 13.812 68.0672 13.92 67.7632 14C67.4592 14.08 67.1592 14.12 66.8632 14.12Z" fill="black"/>
</svg>
